<?xml version="1.0" encoding="utf-8"?>
<!-- Generator: Adobe Illustrator 24.0.2, SVG Export Plug-In . SVG Version: 6.00 Build 0)  -->
<svg version="1.1" id="Layer_1" xmlns="http://www.w3.org/2000/svg" xmlns:xlink="http://www.w3.org/1999/xlink" x="0px" y="0px"
	 viewBox="0 0 512 512" style="enable-background:new 0 0 512 512;" xml:space="preserve">
<style type="text/css">
	.st0{fill:#BE1E2D;}
	.st1{fill:#EC1C24;}
	.st2{fill:#FF0D1F;}
</style>
<g>
	<path class="st0" d="M159.6499,95.3228l-31.7174-49.3368l-7.8957,5.0753l-7.8924,5.091l31.7338,49.3093
		c0,0,6.9524,12.9593,3.6624,24.1367l16.2684-10.4724l16.2986-10.4806C168.5754,107.0003,159.6499,95.3228,159.6499,95.3228z"/>
	<path class="st0" d="M142.5915,36.566c3.159,4.8895-4.3757,15.3668-16.8376,23.3852c-12.4641,8.0047-25.12,10.5354-28.2768,5.6218
		c-3.1563-4.884,4.3921-15.3701,16.848-23.3742C126.7871,34.1804,139.4511,31.6551,142.5915,36.566z"/>
</g>
<g>
	<path class="st0" d="M224.0576,92.0076l-13.6561-57.0127l-9.1194,2.1917l-9.1276,2.1725l13.6588,57.0455
		c0,0,2.2711,14.5227-4.5148,23.9757l18.8129-4.5038l18.8266-4.512C228.6052,106.0055,224.0576,92.0076,224.0576,92.0076z"/>
	<path class="st0" d="M227.359,30.9392c1.3667,5.6651-9.207,13.0601-23.6284,16.5199c-14.4049,3.4357-27.1917,1.6428-28.5392-4.0223
		c-1.3662-5.6788,9.218-13.0689,23.6284-16.5286C213.2302,23.4648,226.012,25.2658,227.359,30.9392z"/>
</g>
<g>
	<path class="st0" d="M284.6122,76.012l11.1801-57.5648l-9.2256-1.7759l-9.1961-1.7874l-11.1664,57.584
		c0,0-3.9407,14.1507-14.0226,19.9495l18.9854,3.6871l18.9876,3.6838C282.9891,90.6442,284.6122,76.012,284.6122,76.012z"/>
	<path class="st0" d="M312.9087,21.7869c-1.1098,5.717-13.7958,8.0808-28.3508,5.2472
		c-14.5364-2.826-25.4322-9.7592-24.3279-15.4709c1.1093-5.7226,13.8144-8.0753,28.353-5.2473
		C303.1331,9.1228,314.0152,16.0561,312.9087,21.7869z"/>
</g>
<g>
	<path class="st0" d="M344.607,99.1402l26.2106-52.4623l-8.3898-4.1845l-8.3897-4.1784l-26.2166,52.4382
		c0,0-7.5916,12.5929-18.8649,15.4709l17.3048,8.6439l17.307,8.6604C339.1193,112.7799,344.607,99.1402,344.607,99.1402z"/>
	<path class="st0" d="M386.4194,54.4717c-2.6124,5.217-15.4457,4.0831-28.7112-2.5444
		c-13.2573-6.6078-21.8848-16.2082-19.2856-21.4252c2.6124-5.2225,15.4731-4.0749,28.7304,2.5389
		C380.3993,39.668,389.0295,49.2547,386.4194,54.4717z"/>
</g>
<g>
	<path class="st0" d="M378.5626,156.1507l40.8834-42.0315l-6.7311-6.5427l-6.7141-6.5312l-40.8894,42.0091
		c0,0-11.0623,9.6988-22.6851,9.0131l13.8582,13.495l13.8747,13.5109C369.1699,167.4618,378.5626,156.1507,378.5626,156.1507z"/>
	<path class="st0" d="M431.9408,126.2831c-4.0585,4.1646-15.9737-0.8147-26.5826-11.1445
		c-10.6115-10.3305-15.9244-22.0979-11.8659-26.2763c4.0667-4.1784,15.9765,0.814,26.599,11.1445
		C430.6973,110.3313,436.0102,122.1047,431.9408,126.2831z"/>
</g>
<g>
	<path class="st0" d="M422.3733,198.0836l54.7553-20.9969l-3.3694-8.7721l-3.3535-8.7507l-54.7662,21.01
		c0,0-14.091,4.1516-24.358-1.3415l6.9387,18.0695l6.9223,18.0777C409.1023,204.44,422.3733,198.0836,422.3733,198.0836z"/>
	<path class="st0" d="M483.3623,193.3667c-5.4329,2.0821-14.1508-7.4416-19.4664-21.2538
		c-5.3096-13.8363-5.1869-26.7573,0.2542-28.8262c5.4466-2.0958,14.159,7.4284,19.4719,21.2647
		C488.9184,178.3741,488.8116,191.2894,483.3623,193.3667z"/>
</g>
<g>
	<path class="st0" d="M433.9248,261.158l58.576-2.5828l-0.4042-9.3681l-0.4213-9.3763l-58.576,2.5932
		c0,0-14.7051-0.5248-22.7016-8.9693l0.8578,19.3349l0.8639,19.3298C419.3315,263.0051,433.9248,261.158,433.9248,261.158z"/>
	<path class="st0" d="M493.2771,276.0028c-5.824,0.2679-11.0788-11.5303-11.7268-26.3422
		c-0.6612-14.7845,3.5255-27.0058,9.3522-27.2545c5.8289-0.2651,11.087,11.5406,11.7263,26.3256
		C503.2932,263.5354,499.101,275.7512,493.2771,276.0028z"/>
</g>
<g>
	<path class="st0" d="M400.8654,315.1919l53.709,23.5216l3.7523-8.5946l3.7797-8.6001l-53.7282-23.5084
		c0,0-12.9675-6.9551-16.4054-18.0668l-7.7669,17.7283l-7.7582,17.7195C386.9715,310.3927,400.8654,315.1919,400.8654,315.1919z"/>
	<path class="st0" d="M447.5782,354.6899c-5.3288-2.345-4.8506-15.2332,1.0824-28.8016
		c5.9604-13.5739,15.0989-22.6856,20.4414-20.349c5.3348,2.3287,4.8456,15.2497-1.1065,28.8154
		C462.0652,347.9095,452.924,357.0295,447.5782,354.6899z"/>
</g>
<g>
	<path class="st0" d="M385.1436,376.7878l45.2366,37.3009l5.9631-7.2367l5.9686-7.2339l-45.2289-37.3064
		c0,0-10.5677-10.2423-10.8602-21.8629l-12.3031,14.9214l-12.3091,14.9324C373.0832,368.368,385.1436,376.7878,385.1436,376.7878z"
		/>
	<path class="st0" d="M419.2904,427.54c-4.4984-3.6981-0.5193-15.971,8.9145-27.3971c9.4338-11.448,20.7043-17.6901,25.2027-13.998
		c4.5088,3.7058,0.5138,15.9903-8.9227,27.4301C435.0724,425.0038,423.7805,431.2512,419.2904,427.54z"/>
</g>
<g>
	<path class="st0" d="M337.6491,416.2284l30.0752,50.3364l8.0616-4.8013l8.054-4.8184l-30.0779-50.3472
		c0,0-6.518-13.1779-2.8671-24.2272l-16.6075,9.9072l-16.6158,9.9339C329.1306,404.2556,337.6491,416.2284,337.6491,416.2284z"/>
	<path class="st0" d="M352.7563,475.5121c-2.9788-5.0012,4.8862-15.2025,17.6105-22.8166
		c12.7271-7.5999,25.4541-9.7017,28.4412-4.7032c3.0029,5.0121-4.8949,15.2277-17.6165,22.8275
		C368.484,478.4093,355.746,480.5298,352.7563,475.5121z"/>
</g>
<g>
	<path class="st0" d="M274.8206,420.4725l9.2701,57.9039l9.2613-1.4868l9.2701-1.4948l-9.2755-57.8957
		c0,0-1.1613-14.6508,6.3241-23.5736l-19.1136,3.0582l-19.0999,3.0687C271.3362,406.1799,274.8206,420.4725,274.8206,420.4725z"/>
	<path class="st0" d="M266.8708,481.1175c-0.929-5.7473,10.1826-12.3091,24.817-14.6618c14.6262-2.3341,27.241,0.437,28.1569,6.1899
		c0.9263,5.75-10.1909,12.325-24.8253,14.6783C280.3981,489.6547,267.7888,486.8862,266.8708,481.1175z"/>
</g>
<g>
	<path class="st0" d="M214.6511,435.4433l-10.7918,57.6547l9.2153,1.703l9.2125,1.7381l10.8055-57.6415
		c0,0,3.8481-14.1892,13.902-20.0481l-19.0232-3.5748l-19.0183-3.5693C216.1953,420.8253,214.6511,435.4433,214.6511,435.4433z"/>
	<path class="st0" d="M186.7052,489.8732c1.0742-5.7226,13.7459-8.1576,28.3069-5.4411
		c14.5714,2.7356,25.5056,9.5954,24.4205,15.3235c-1.0654,5.7225-13.7377,8.1656-28.3201,5.4219
		C196.5652,502.4529,185.6364,495.6095,186.7052,489.8732z"/>
</g>
<g>
	<path class="st0" d="M165.6705,395.4972l-30.3458,50.1801l8.0397,4.8512l8.0376,4.8533l30.3211-50.183
		c0,0,8.5837-11.9509,20.0591-13.913l-16.561-9.9998l-16.5637-10.0105C172.2373,382.333,165.6705,395.4972,165.6705,395.4972z"/>
	<path class="st0" d="M120.417,436.6539c3.0062-4.9738,15.7278-2.8123,28.4214,4.8396
		c12.6695,7.6765,20.5077,17.9385,17.4933,22.9123c-3.0226,4.9986-15.747,2.8261-28.4357-4.8533
		C125.2242,451.9139,117.3888,441.6606,120.417,436.6539z"/>
</g>
<g>
	<path class="st0" d="M104.9406,373.3774l-44.9583,37.642l6.0234,7.1957l6.0288,7.1901l44.9556-37.6394
		c0,0,11.9859-8.5157,23.4778-6.6571l-12.4209-14.8318l-12.4236-14.831C115.4212,363.0742,104.9406,373.3774,104.9406,373.3774z"/>
	<path class="st0" d="M48.7748,397.656c4.46-3.7495,15.81,2.4212,25.3227,13.7925c9.4968,11.3417,13.6046,23.6037,9.1282,27.3396
		c-4.4819,3.7495-15.799-2.4349-25.3309-13.7925C48.3979,413.6323,44.2983,401.4055,48.7748,397.656z"/>
</g>
<g>
	<path class="st0" d="M74.3461,316.7936l-54.4244,21.8163l3.4926,8.7042l3.4872,8.7151l54.4299-21.8224
		c0,0,14.0417-4.3641,24.3936,0.9625l-7.2038-17.9578l-7.1956-17.9661C87.5131,310.2372,74.3461,316.7936,74.3461,316.7936z"/>
	<path class="st0" d="M13.4311,322.4286c5.4055-2.1807,14.2652,7.2038,19.7939,20.9552
		c5.5013,13.7684,5.5835,26.6564,0.1775,28.8344c-5.4137,2.173-14.2734-7.2148-19.7939-20.9689
		C8.0935,337.4892,8.0146,324.5874,13.4311,322.4286z"/>
</g>
<g>
	<path class="st0" d="M81.5362,250.5081l-58.1329,7.6382l1.2133,9.2942l1.2352,9.3111l58.1362-7.6465
		c0,0,14.6914-0.7544,23.3819,6.9743l-2.511-19.1821l-2.5307-19.1875C95.9198,247.4115,81.5362,250.5081,81.5362,250.5081z"/>
	<path class="st0" d="M21.1213,240.842c5.7747-0.7433,12.0407,10.5513,13.9705,25.2268c1.9293,14.6891-1.192,27.2163-6.9579,27.9679
		c-5.8021,0.7762-12.0549-10.5239-13.976-25.2131C12.2177,254.1344,15.333,241.6122,21.1213,240.842z"/>
</g>
<g>
	<path class="st0" d="M80.6154,191.4428l-56.2995-16.419l-2.6206,8.9962l-2.6184,9.0241l56.2858,16.4081
		c0,0,13.7465,5.2307,18.5971,15.8094l5.4142-18.5779l5.4274-18.5806C95.0149,194.4053,80.6154,191.4428,80.6154,191.4428z"/>
	<path class="st0" d="M29.2131,158.2712c5.5835,1.6263,6.7694,14.4953,2.6047,28.7167
		c-4.1379,14.2163-12.0385,24.4265-17.6269,22.7979c-5.6027-1.6428-6.7722-14.4898-2.6321-28.7063
		C15.7131,166.8526,23.6137,156.6425,29.2131,158.2712z"/>
</g>
<g>
	<path class="st0" d="M122.0784,145.1837l-45.2042-37.3256l-5.9878,7.2367l-5.9741,7.2422l45.2262,37.3256
		c0,0,10.5628,10.2204,10.817,21.8596l12.3332-14.9265l12.3113-14.9131C134.1306,153.6063,122.0784,145.1837,122.0784,145.1837z"/>
	<path class="st0" d="M87.9644,94.4069c4.4901,3.703,0.4946,15.982-8.9364,27.4024c-9.4311,11.429-20.7317,17.6846-25.2219,13.9652
		c-4.4956-3.7167-0.5001-15.971,8.9474-27.4217C72.1736,96.9486,83.4661,90.682,87.9644,94.4069z"/>
</g>
<path class="st0" d="M387.4415,171.4737c-6.8182-11.0191-3.4214-25.4755,7.5922-32.2944l0.2788-0.1609
	c-3.9544-4.9086-8.1279-9.6009-12.5331-14.0554l-0.1967,0.2624c-8.0047,10.1852-22.7645,11.9344-32.939,3.9296
	c-10.1909-8.0177-11.9454-22.7644-3.933-32.9416l0.178-0.2049c-5.3759-3.2494-10.9205-6.1981-16.5834-8.8707l-0.0816,0.2569
	c-4.0284,12.2921-17.2911,18.9958-29.6079,14.9647c-12.2866-4.0251-19.0013-17.2796-14.968-29.5964l0.0712-0.2514
	c-6.1296-1.1974-12.3469-2.0881-18.5916-2.6786v0.2898c0.4234,12.9456-9.7291,23.784-22.6884,24.2134
	c-12.9292,0.4289-23.7703-9.7236-24.1964-22.6637l-0.0164-0.2816c-6.1461,0.9811-12.2817,2.2766-18.3922,3.8914l0.0931,0.2432
	c4.8396,12.0303-0.9756,25.6809-12.9949,30.5129c-12.0084,4.8369-25.6782-0.9679-30.5205-12.984l-0.1013-0.2432
	c-5.1184,2.8501-10.0758,5.9083-14.8503,9.1714l0.1967,0.2158c8.5815,9.6716,7.6985,24.508-1.9841,33.1088
	c-9.7044,8.5946-24.5246,7.7039-33.1192-1.9923l-0.1945-0.2131c-4.1346,4.7299-8.0233,9.6661-11.6556,14.7462l0.2323,0.1286
	c11.3856,6.1654,15.6243,20.395,9.4804,31.797c-6.1488,11.3877-20.3927,15.6292-31.7859,9.4771l-0.2076-0.1145
	c-2.2793,5.8371-4.2579,11.7838-5.9494,17.8345l0.2761,0.0329c12.795,1.8909,21.6745,13.798,19.783,26.6235
	c-1.8663,12.817-13.7788,21.674-26.599,19.8022l-0.3194-0.0438c-0.1315,6.2421,0.0411,12.5167,0.5467,18.8103l0.3303-0.0653
	c12.6778-2.6403,25.0767,5.5173,27.7252,18.2006c2.6233,12.686-5.5369,25.0986-18.2147,27.7329l-0.2843,0.0493
	c1.0852,3.1733,2.2547,6.3159,3.5282,9.4612c1.0873,2.7109,2.241,5.3786,3.4543,8.0047l0.2295-0.1342
	c11.0246-6.8182,25.4837-3.4159,32.2887,7.6059c6.8291,10.9998,3.4214,25.4645-7.6053,32.2833l-0.2679,0.172
	c3.9626,4.9026,8.1383,9.5948,12.5326,14.0362l0.2076-0.2679c8.0047-10.1662,22.7569-11.9207,32.945-3.9248
	c10.1744,8.0184,11.9372,22.7651,3.9133,32.9423l-0.1665,0.224c5.3808,3.2303,10.9287,6.1789,16.5883,8.8515l0.0707-0.2379
	c4.0366-12.3112,17.2994-19.0149,29.597-14.9762c12.3255,4.0367,19.021,17.2913,14.9872,29.5944l-0.0849,0.2514
	c6.1433,1.2051,12.3469,2.0909,18.6053,2.6731v-0.2816c-0.4344-12.9347,9.7099-23.7845,22.6638-24.2079
	c12.9484-0.4234,23.8031,9.7099,24.2129,22.661l0.0164,0.2843c6.1494-0.9949,12.2708-2.2903,18.384-3.9057l-0.0981-0.2295
	c-4.8374-12.0215,0.9948-25.6913,12.9998-30.5371c12.0248-4.834,25.6809,0.9922,30.5233,13.0088l0.0931,0.2295
	c5.1321-2.8501,10.1005-5.9001,14.864-9.1577l-0.1939-0.2158c-8.581-9.6853-7.6957-24.5273,1.9895-33.117
	c9.688-8.5809,24.5246-7.7039,33.1115,1.9813l0.1802,0.2186c4.1428-4.7306,8.0452-9.6469,11.6803-14.7544l-0.246-0.1205
	c-11.3795-6.1461-15.6374-20.3927-9.4804-31.7749c6.1598-11.4014,20.4009-15.6512,31.7859-9.4935l0.2213,0.1282
	c2.2738-5.8508,4.2552-11.8112,5.9275-17.8427l-0.2569-0.0384c-12.8087-1.8911-21.6794-13.8034-19.8049-26.6154
	c1.8827-12.8032,13.787-21.6931,26.6099-19.8104l0.3276,0.052c0.1233-6.2556-0.0433-12.5167-0.5352-18.8156l-0.3281,0.0707
	c-12.6942,2.6321-25.1096-5.5309-27.7301-18.2087c-2.6293-12.6887,5.5227-25.0986,18.1977-27.7307l0.2761-0.046
	c-1.0736-3.1788-2.2355-6.3187-3.5008-9.4585c-1.0901-2.7164-2.2683-5.3841-3.4707-8.024l-0.224,0.1475
	C408.7227,185.8868,394.2603,182.4846,387.4415,171.4737z"/>
<path class="st1" d="M190.7061,215.0324c6.6845,16.5999-1.3557,35.4757-17.9578,42.1656
	c-16.5938,6.6902-35.4834-1.353-42.1707-17.9577c-6.6873-16.6048,1.3552-35.4806,17.9578-42.1652
	C165.1375,190.3906,184.0189,198.4221,190.7061,215.0324z"/>
<path class="st2" d="M281.5545,251.7516c6.6873,16.6101-1.3585,35.4971-17.9578,42.1816
	c-16.602,6.6845-35.4889-1.3694-42.1679-17.9688c-6.6927-16.5993,1.3475-35.4807,17.9578-42.1652
	C255.9831,227.1202,274.8645,235.1463,281.5545,251.7516z"/>
<path class="st2" d="M210.1095,328.0745c6.6845,16.5993-1.3557,35.4724-17.9468,42.157
	c-16.6267,6.6982-35.4998-1.3388-42.1843-17.9381c-6.69-16.6185,1.3497-35.4917,17.9682-42.1767
	C184.5464,303.4322,203.4222,311.4615,210.1095,328.0745z"/>
<path class="st2" d="M267.6168,130.3717c6.6736,16.5938-1.3667,35.4752-17.9633,42.1515
	c-16.6021,6.6927-35.4916-1.3448-42.1707-17.9441c-6.6818-16.5994,1.3557-35.4916,17.9578-42.1761
	C242.0373,105.7185,260.9268,113.7609,267.6168,130.3717z"/>
<path class="st2" d="M184.6389,99.5586c4.9218,7.48-3.1864,21.5267-18.1298,31.3894c-14.9406,9.8573-31.048,11.8008-35.9808,4.3209
	c-4.9382-7.4662,3.1837-21.5079,18.1134-31.3707C163.5851,94.0273,179.6925,92.0843,184.6389,99.5586z"/>
<path class="st2" d="M417.5934,274.464c7.9718,4.0175,7.9225,20.24-0.1397,36.2241c-8.0562,15.9901-21.073,25.6809-29.0585,21.6471
	c-7.9932-4.0366-7.9307-20.2639,0.1233-36.2404C396.5774,280.1155,409.5887,270.4248,417.5934,274.464z"/>
<path class="st2" d="M88.1665,286.3081c8.2205-3.5058,20.603,6.9853,27.637,23.4509c7.0318,16.4574,6.059,32.6519-2.1752,36.1582
	c-8.215,3.5255-20.592-6.9799-27.6288-23.4312C78.9677,306.0287,79.9241,289.8254,88.1665,286.3081z"/>
<path class="st2" d="M193.0342,400.4896c2.3231-8.6522,18.2147-11.8769,35.5025-7.2307
	c17.2884,4.6539,29.4113,15.4265,27.0799,24.0737c-2.3116,8.6385-18.2114,11.8824-35.4943,7.2285
	C202.8262,419.9012,190.7034,409.1286,193.0342,400.4896z"/>
<path class="st2" d="M298.3915,106.601c3.6345-8.1822,19.8323-8.9666,36.2021-1.7436
	c16.3807,7.2312,26.7167,19.7288,23.1091,27.9191c-3.6071,8.1821-19.8186,8.9719-36.1829,1.7436
	C305.139,127.2889,294.7948,114.7804,298.3915,106.601z"/>
<path class="st2" d="M388.2232,200.5432c6.6845,16.6048-1.3771,35.4861-17.9792,42.1789
	c-16.5971,6.6818-35.4785-1.3612-42.1657-17.9524c-6.6873-16.6266,1.3503-35.5052,17.955-42.1843
	C362.6327,175.9008,381.5305,183.9382,388.2232,200.5432z"/>
<path class="st2" d="M347.8536,334.8303c6.6845,16.6048-1.3612,35.4861-17.9633,42.1707
	c-16.613,6.6899-35.4916-1.3525-42.1707-17.9523c-6.6927-16.5993,1.3503-35.4724,17.966-42.157
	C322.2823,310.1934,341.1636,318.2227,347.8536,334.8303z"/>
</svg>
