<?xml version="1.0" encoding="UTF-8" standalone="no"?> <svg xmlns="http://www.w3.org/2000/svg" viewBox="0 0 32 32"><defs><style>.cls-1{fill:#2d4a60;}.cls-2{fill:#eaeff0;}.cls-3{fill:#009ae0;}</style></defs><title>Decision</title><g id="Desicion"><path class="cls-1" d="M16,27a1,1,0,0,1-1-1V5a1,1,0,0,1,2,0V26A1,1,0,0,1,16,27Z"/><path class="cls-1" d="M29.9,15.553l-4-8a.993.993,0,0,0-1-.547l-7.01.78A1,1,0,1,0,18.1,9.773L23.283,9.2l-3.178,6.356a1,1,0,0,0,1.79.894L25,10.237l3.105,6.21a1,1,0,1,0,1.79-.894Z"/><path class="cls-1" d="M13.9,8.227,6.89,9.006a1,1,0,0,0-.785.547l-4,8a1,1,0,0,0,1.79.894L7,12.236l3.105,6.211a1,1,0,1,0,1.79-.894L8.536,10.835l5.584-.621A1,1,0,1,0,13.9,8.227Z"/><circle class="cls-2" cx="16" cy="9" r="3"/><circle class="cls-1" cx="16" cy="9" r="1"/><path class="cls-3" d="M7.272,28a1,1,0,0,1-.9-1.451A3,3,0,0,1,9,25H23a3,3,0,0,1,2.625,1.549,1,1,0,0,1-.9,1.451Z"/><path class="cls-3" d="M23,19a3,3,0,0,1-3-3H30a3,3,0,0,1-3,3Z"/><path class="cls-3" d="M5,21a3,3,0,0,1-3-3H12a3,3,0,0,1-3,3Z"/></g></svg>