<?xml version="1.0" encoding="utf-8"?>
<!-- Generator: Adobe Illustrator 18.0.0, SVG Export Plug-In . SVG Version: 6.00 Build 0)  -->
<!DOCTYPE svg PUBLIC "-//W3C//DTD SVG 1.1//EN" "http://www.w3.org/Graphics/SVG/1.1/DTD/svg11.dtd">
<svg version="1.1" id="Layer_1" xmlns="http://www.w3.org/2000/svg" xmlns:xlink="http://www.w3.org/1999/xlink" x="0px" y="0px"
	 viewBox="0 0 64 64" enable-background="new 0 0 64 64" xml:space="preserve">
<g>
	<g>
		<g>
			<path fill="#FFD41D" d="M32,0c17.7,0,32,14.3,32,32S49.7,64,32,64S0,49.7,0,32S14.3,0,32,0z"/>
		</g>
	</g>
	<g>
		<g>
			<path fill="#FFFFFF" d="M49,30h-8.4h-2.3H15L9,50h46L49,30z"/>
		</g>
	</g>
	<g>
		<g>
			<polygon fill="#63B0E5" points="51.7,46.9 52,48 26,48 25.6,41.4 			"/>
		</g>
	</g>
	<g>
		<g>
			<polygon fill="#FFF4C5" points="47,32 25,32 25.5,39.3 31.5,40.6 51,44.8 			"/>
		</g>
	</g>
	<g>
		<g>
			<polygon fill="#54D1AD" points="23.6,41 24,48 12,48 14.8,39.2 			"/>
		</g>
	</g>
	<g>
		<g>
			<polygon fill="#FCDD5B" points="51.7,46.9 51,44.8 31.5,40.6 25.5,39.3 25,32 23,32 23.4,38.8 15.4,37.1 14.8,39.2 23.6,41 
				24,48 26,48 25.6,41.4 			"/>
		</g>
	</g>
	<g>
		<g>
			<polygon fill="#63B0E5" points="23,32 23.4,38.8 15.4,37.1 17,32 			"/>
		</g>
	</g>
	<g>
		<g>
			<path fill="#E84B4B" d="M32,10c-5.5,0-10,4.7-10,10.5c0,3.1,1.7,6.5,3.7,9.5c0.5,0.7,0.9,1.3,1.4,2c2,2.8,4.1,5,4.9,6
				c0.8-1,2.9-3.3,4.9-6c0.5-0.6,0.9-1.3,1.4-2c2-3,3.7-6.4,3.7-9.5C42,14.7,37.5,10,32,10z M32,23c-1.7,0-3-1.3-3-3
				c0-1.7,1.3-3,3-3s3,1.3,3,3C35,21.7,33.7,23,32,23z"/>
		</g>
	</g>
	<g>
		<g>
			<path fill="#C93D3D" d="M32,15c2.8,0,5,2.2,5,5c0,2.8-2.2,5-5,5s-5-2.2-5-5C27,17.2,29.2,15,32,15z M35,20c0-1.7-1.3-3-3-3
				s-3,1.4-3,3c0,1.6,1.3,3,3,3S35,21.7,35,20z"/>
		</g>
	</g>
</g>
</svg>
