<?xml version="1.0" encoding="UTF-8"?>
<!DOCTYPE svg PUBLIC "-//W3C//DTD SVG 1.1//EN" "http://www.w3.org/Graphics/SVG/1.1/DTD/svg11.dtd">
<!-- Creator: CorelDRAW -->
<svg xmlns="http://www.w3.org/2000/svg" xml:space="preserve" width="7.83333in" height="7.83333in" style="shape-rendering:geometricPrecision; text-rendering:geometricPrecision; image-rendering:optimizeQuality; fill-rule:evenodd; clip-rule:evenodd"
viewBox="0 0 7.83333 7.83333"
 xmlns:xlink="http://www.w3.org/1999/xlink">
 <defs>
  <style type="text/css">
   <![CDATA[
    .fil4 {fill:#AFB1B9}
    .fil3 {fill:#B2DFDB}
    .fil2 {fill:#E8EAF6}
    .fil0 {fill:#FFDB78}
    .fil1 {fill:#413B32;fill-rule:nonzero}
   ]]>
  </style>
 </defs>
 <g id="Layer_x0020_1">
  <metadata id="CorelCorpID_0Corel-Layer"/>
  <circle class="fil0" cx="3.91667" cy="3.91667" r="3.91667"/>
  <g id="_322459864">
   <path id="_322460728" class="fil1" d="M2.1038 1.35667l3.10363 0c0.0222638,0 0.0423976,0.00909843 0.0569016,0.0237756l0.521768 0.521764 3.93701e-006 -3.93701e-006c0.015622,0.0156181 0.0234291,0.0360945 0.0234291,0.0565669l3.93701e-006 0 0 4.4379c0,0.0441811 -0.0358189,0.08 -0.08,0.08l-3.62573 0c-0.0441811,0 -0.08,-0.0358189 -0.08,-0.08l0 -4.96c0,-0.0441811 0.0358189,-0.08 0.08,-0.08zm3.0705 0.16l-2.9905 0 0 4.8 3.46573 0 0 -4.32477 -0.475232 -0.475228z"/>
   <path id="_322460752" class="fil1" d="M2.68322 2.17113c-0.0441811,0 -0.08,0.0358189 -0.08,0.08 0,0.0441811 0.0358189,0.08 0.08,0.08l1.88089 0c0.0441811,0 0.08,-0.0358189 0.08,-0.08 0,-0.0441811 -0.0358189,-0.08 -0.08,-0.08l-1.88089 0z"/>
   <path id="_322460968" class="fil1" d="M2.68322 3.0039c-0.0441811,0 -0.08,0.0358189 -0.08,0.08 0,0.0441811 0.0358189,0.08 0.08,0.08l2.26977 0c0.0441811,0 0.08,-0.0358189 0.08,-0.08 0,-0.0441811 -0.0358189,-0.08 -0.08,-0.08l-2.26977 0z"/>
   <path id="_322460608" class="fil1" d="M2.68322 3.83667c-0.0441811,0 -0.08,0.0358189 -0.08,0.08 0,0.0441811 0.0358189,0.08 0.08,0.08l2.46689 0c0.0441811,0 0.08,-0.0358189 0.08,-0.08 0,-0.0441811 -0.0358189,-0.08 -0.08,-0.08l-2.46689 0z"/>
   <path id="_322460800" class="fil1" d="M2.68322 4.66944c-0.0441811,0 -0.08,0.0358189 -0.08,0.08 0,0.0441811 0.0358189,0.08 0.08,0.08l2.46689 0c0.0441811,0 0.08,-0.0358189 0.08,-0.08 0,-0.0441811 -0.0358189,-0.08 -0.08,-0.08l-2.46689 0z"/>
   <path id="_322460656" class="fil1" d="M2.68322 5.50221c-0.0441811,0 -0.08,0.0358189 -0.08,0.08 0,0.0441811 0.0358189,0.08 0.08,0.08l2.46689 0c0.0441811,0 0.08,-0.0358189 0.08,-0.08 0,-0.0441811 -0.0358189,-0.08 -0.08,-0.08l-2.46689 0z"/>
   <path id="_322460920" class="fil1" d="M5.17796 1.35667l0.0294685 0c0.0222638,0 0.0423976,0.00909843 0.0569016,0.0237756l0.521768 0.521764 3.93701e-006 -3.93701e-006c0.0156181,0.0156181 0.0234291,0.0360945 0.0234291,0.0565669l3.93701e-006 0 0 0.0522126c0,0.0441811 -0.0358189,0.08 -0.08,0.08l-0.551575 0c-0.0441811,0 -0.08,-0.0358189 -0.08,-0.08l0 -0.574315c0,-0.0441811 0.0358189,-0.08 0.08,-0.08zm0.410661 0.574315l-0.330661 -0.330657 0 0.330657 0.330661 0z"/>
   <path id="_322461136" class="fil2" d="M5.09796 1.51667l-2.91416 0 0 4.8 3.46573 0 0 -4.22569 -0.471575 0c-0.0441811,0 -0.08,-0.0358189 -0.08,-0.08l0 -0.494315zm-2.41474 0.654461l1.88089 0c0.0441811,0 0.08,0.0358189 0.08,0.08 0,0.0441811 -0.0358189,0.08 -0.08,0.08l-1.88089 0c-0.0441811,0 -0.08,-0.0358189 -0.08,-0.08 0,-0.0441811 0.0358189,-0.08 0.08,-0.08zm0 0.832772l2.26977 0c0.0441811,0 0.08,0.0358189 0.08,0.08 0,0.0441811 -0.0358189,0.08 -0.08,0.08l-2.26977 0c-0.0441811,0 -0.08,-0.0358189 -0.08,-0.08 0,-0.0441811 0.0358189,-0.08 0.08,-0.08zm0 0.832772l2.46689 0c0.0441811,0 0.08,0.0358189 0.08,0.08 0,0.0441811 -0.0358189,0.08 -0.08,0.08l-2.46689 0c-0.0441811,0 -0.08,-0.0358189 -0.08,-0.08 0,-0.0441811 0.0358189,-0.08 0.08,-0.08zm0 0.832772l2.46689 0c0.0441811,0 0.08,0.0358189 0.08,0.08 0,0.0441811 -0.0358189,0.08 -0.08,0.08l-2.46689 0c-0.0441811,0 -0.08,-0.0358189 -0.08,-0.08 0,-0.0441811 0.0358189,-0.08 0.08,-0.08zm-0.08 0.912768c0,-0.0441811 0.0358189,-0.08 0.08,-0.08l2.46689 0c0.0441811,0 0.08,0.0358189 0.08,0.08 0,0.0441811 -0.0358189,0.08 -0.08,0.08l-2.46689 0c-0.0441811,0 -0.08,-0.0358189 -0.08,-0.08z"/>
   <polygon id="_322461112" class="fil3" points="5.25796,1.60032 5.25796,1.93098 5.58862,1.93098 "/>
   <polygon id="_322460248" class="fil4" points="5.42415,2.09098 5.42415,6.31667 5.64953,6.31667 5.64953,2.09098 "/>
  </g>
 </g>
</svg>
